<?xml version="1.0" encoding="iso-8859-1"?>
<!-- Generator: Adobe Illustrator 19.0.0, SVG Export Plug-In . SVG Version: 6.00 Build 0)  -->
<svg version="1.1" id="Layer_1" xmlns="http://www.w3.org/2000/svg" xmlns:xlink="http://www.w3.org/1999/xlink" x="0px" y="0px"
	 viewBox="0 0 512 512" style="enable-background:new 0 0 512 512;" xml:space="preserve">
<g transform="translate(0 -1)">
	<polygon style="fill:#71C285;" points="119.467,86.333 17.067,402.067 119.467,402.067 221.867,402.067 	"/>
	<g>
		<path style="fill:#804537;" d="M119.467,333.8c-2.185,0-4.369-0.836-6.033-2.5c-3.337-3.337-3.337-8.73,0-12.066l25.6-25.6
			c3.337-3.337,8.73-3.337,12.066,0c3.337,3.337,3.337,8.73,0,12.066l-25.6,25.6C123.836,332.964,121.651,333.8,119.467,333.8"/>
		<path style="fill:#804537;" d="M119.467,333.8c-2.185,0-4.369-0.836-6.033-2.5l-25.6-25.6c-3.337-3.337-3.337-8.73,0-12.066
			c3.337-3.337,8.73-3.337,12.066,0l25.6,25.6c3.337,3.337,3.337,8.73,0,12.066C123.836,332.964,121.651,333.8,119.467,333.8"/>
		<path style="fill:#804537;" d="M119.467,513c-4.719,0-8.533-3.814-8.533-8.533v-179.2c0-4.719,3.814-8.533,8.533-8.533
			c4.719,0,8.533,3.814,8.533,8.533v179.2C128,509.186,124.186,513,119.467,513"/>
	</g>
	<path style="fill:#BDC3C7;" d="M438.4,139.667c12.322,0,22.4,11.042,22.4,24.533c0,13.491-10.078,24.533-22.4,24.533h-96h-3.2
		c-17.673,0-32-15.693-32-35.046s14.327-35.046,32-35.046c0,0,16.93-32.307,53.333-32.307c22.801,0,42.667,16.973,42.667,53.333
		H438.4z"/>
	<g>
		<path style="fill:#95A5A5;" d="M213.333,69.267c-4.719,0-8.533-3.814-8.533-8.533C204.8,27.803,231.603,1,264.533,1
			c4.719,0,8.533,3.814,8.533,8.533s-3.814,8.533-8.533,8.533c-23.526,0-42.667,19.14-42.667,42.667
			C221.867,65.452,218.052,69.267,213.333,69.267"/>
		<path style="fill:#95A5A5;" d="M213.333,69.267c-4.719,0-8.533-3.814-8.533-8.533c0-18.825-15.309-34.133-34.133-34.133
			c-4.719,0-8.533-3.814-8.533-8.533s3.814-8.533,8.533-8.533c28.237,0,51.2,22.963,51.2,51.2
			C221.867,65.452,218.052,69.267,213.333,69.267"/>
	</g>
	<g>
		<path style="fill:#CB8252;" d="M315.733,513c-4.719,0-8.533-3.814-8.533-8.533V461.8c0-4.719,3.814-8.533,8.533-8.533
			c4.719,0,8.533,3.814,8.533,8.533v42.667C324.267,509.186,320.452,513,315.733,513"/>
		<path style="fill:#CB8252;" d="M435.2,513c-4.719,0-8.533-3.814-8.533-8.533V461.8c0-4.719,3.814-8.533,8.533-8.533
			c4.719,0,8.533,3.814,8.533,8.533v42.667C443.733,509.186,439.919,513,435.2,513"/>
		<path style="fill:#CB8252;" d="M315.733,427.667c-4.719,0-8.533-3.814-8.533-8.533V385c0-4.719,3.814-8.533,8.533-8.533
			c4.719,0,8.533,3.814,8.533,8.533v34.133C324.267,423.852,320.452,427.667,315.733,427.667"/>
		<path style="fill:#CB8252;" d="M435.2,427.667c-4.719,0-8.533-3.814-8.533-8.533V385c0-4.719,3.814-8.533,8.533-8.533
			c4.719,0,8.533,3.814,8.533,8.533v34.133C443.733,423.852,439.919,427.667,435.2,427.667"/>
		<path style="fill:#CB8252;" d="M315.733,393.533c-4.719,0-8.533-3.814-8.533-8.533v-51.2c0-4.719,3.814-8.533,8.533-8.533
			c4.719,0,8.533,3.814,8.533,8.533V385C324.267,389.719,320.452,393.533,315.733,393.533"/>
		<path style="fill:#CB8252;" d="M435.2,393.533c-4.719,0-8.533-3.814-8.533-8.533v-51.2c0-4.719,3.814-8.533,8.533-8.533
			c4.719,0,8.533,3.814,8.533,8.533V385C443.733,389.719,439.919,393.533,435.2,393.533"/>
	</g>
	<path style="fill:#805333;" d="M469.333,461.8H281.6v-15.727c0-14.882,12.058-26.94,26.94-26.94h133.854
		c14.882,0,26.94,12.058,26.94,26.94V461.8z"/>
	<g>
		<path style="fill:#CB8252;" d="M460.8,393.533H290.133c-4.719,0-8.533-3.814-8.533-8.533c0-4.719,3.814-8.533,8.533-8.533H460.8
			c4.719,0,8.533,3.814,8.533,8.533C469.333,389.719,465.519,393.533,460.8,393.533"/>
		<path style="fill:#CB8252;" d="M460.8,359.4H290.133c-4.719,0-8.533-3.814-8.533-8.533c0-4.719,3.814-8.533,8.533-8.533H460.8
			c4.719,0,8.533,3.814,8.533,8.533C469.333,355.586,465.519,359.4,460.8,359.4"/>
	</g>
	<path style="fill:#95A5A5;" d="M503.467,513H8.533C3.814,513,0,509.186,0,504.467c0-4.719,3.814-8.533,8.533-8.533h494.933
		c4.719,0,8.533,3.814,8.533,8.533C512,509.186,508.186,513,503.467,513"/>
</g>
<g>
</g>
<g>
</g>
<g>
</g>
<g>
</g>
<g>
</g>
<g>
</g>
<g>
</g>
<g>
</g>
<g>
</g>
<g>
</g>
<g>
</g>
<g>
</g>
<g>
</g>
<g>
</g>
<g>
</g>
</svg>
