<?xml version="1.0" encoding="iso-8859-1"?>
<!-- Generator: Adobe Illustrator 19.0.0, SVG Export Plug-In . SVG Version: 6.00 Build 0)  -->
<svg version="1.1" id="Capa_1" xmlns="http://www.w3.org/2000/svg" xmlns:xlink="http://www.w3.org/1999/xlink" x="0px" y="0px"
	 viewBox="0 0 400 400" style="enable-background:new 0 0 400 400;" xml:space="preserve">
<g id="XMLID_3_">
	<path id="XMLID_2339_" style="fill:#A0815C;" d="M114.718,252.919h-10.051l14.169-43.65l-9.218-1.079l9.456-18.808
		c-4.697-2.479-7.922-6.805-9.147-11.702c-4.773,3.07-10.897,3.888-16.576,1.639c-1.348-0.533-2.583-1.224-3.723-2.02l-2.018,28.314
		l-10.156-1.188l3.929,48.494h-8.332L83.469,305h20.832L114.718,252.919z"/>
	<path id="XMLID_2340_" style="fill:#64C37D;" d="M106.773,145.422c5.68,2.249,9.584,7.038,10.961,12.544l0,0
		c8.165-20.619,26.556-67.061,27.167-68.605c-2.791-3.572-6.26-7.017-10.568-10.167c-46.927-34.311-90.143,4.371-90.143,4.371
		c25.068-0.276,42.009,6.51,53.427,15.32c-9.428-0.748-20.257-0.112-32.118,3.124C0.354,119.79,0,196.962,0,196.962
		c28.617-34.059,59.689-39.786,82.141-37.898c0.211-1.144,0.529-2.283,0.974-3.405C86.821,146.298,97.416,141.717,106.773,145.422z"
		/>
	<path id="XMLID_2341_" style="fill:#4B925E;" d="M134.311,156.327c9.359,3.705,13.943,14.299,10.237,23.659
		c-0.444,1.121-0.992,2.17-1.62,3.148c3.594,2.848,7.229,6.173,10.724,10.033l41.563-38.366c-0.359-0.62-0.717-1.239-1.097-1.859
		c-6.429-10.48-13.888-18.357-21.272-24.266c10.62,1.031,22.686,4.946,35.567,13.942l8.857-8.177
		c-6.749-17.463-22.315-40.89-57.706-45.257c-5.297-0.653-10.183-0.519-14.663,0.175c-0.611,1.545-19.002,47.986-27.167,68.605
		C122.508,154.895,128.632,154.078,134.311,156.327z"/>
	<path id="XMLID_2342_" style="fill:#50412E;" d="M109.928,177.679c1.225,4.897,4.449,9.224,9.147,11.702
		c0.583,0.309,1.186,0.593,1.813,0.841c8.238,3.262,17.428,0.099,22.041-7.088c0.628-0.979,1.176-2.027,1.62-3.148
		c3.706-9.36-0.878-19.954-10.237-23.659c-5.679-2.249-11.803-1.432-16.576,1.639l0,0c-1.377-5.506-5.281-10.295-10.961-12.544
		c-9.357-3.705-19.952,0.876-23.659,10.236c-0.444,1.122-0.763,2.262-0.974,3.405c-1.303,7.022,1.665,14.171,7.488,18.235
		c1.14,0.796,2.375,1.486,3.723,2.02C99.03,181.567,105.154,180.75,109.928,177.679z"/>
	<path id="XMLID_2343_" style="fill:#AED5F3;" d="M346.667,175H375c8.284,0,15-6.716,15-15s-6.716-15-15-15h-30
		c8.284,0,15-6.716,15-15s-6.716-15-15-15h-63.333L346.667,175z"/>
	<polygon id="XMLID_2344_" style="fill:#FFD6A0;" points="104.301,305 83.469,305 40,305 40,335 220,335 220,305 	"/>
	<rect id="XMLID_2345_" x="220" y="305" style="fill:#FFC170;" width="180" height="30"/>
	<path id="XMLID_2346_" style="fill:#A0815C;" d="M260,244.999V215H150v89.999h90v-60H260z M210,274.999h-30v-30h30V274.999z"/>
	<path id="XMLID_2349_" style="fill:#786145;" d="M260,244.999h20v60h90V215H260V244.999z M310,244.999h30v30h-30V244.999z"/>
	<polygon id="XMLID_2352_" style="fill:#FFD6A0;" points="195.215,154.802 153.651,193.168 130,215 150,215 260,215 260,214.999 
		260,165 184.167,165 260,95 217.27,134.442 208.413,142.619 	"/>
	<polygon id="XMLID_2353_" style="fill:#FFC170;" points="335.833,165 260,165 260,214.999 260,215 370,215 390,215 346.667,175 
		281.667,115 260,95 	"/>
	<polygon id="XMLID_2354_" style="fill:#50412E;" points="260,244.999 240,244.999 240,304.999 280,304.999 280,244.999 	"/>
	<rect id="XMLID_2355_" x="180" y="244.999" style="fill:#50412E;" width="30" height="30"/>
	<rect id="XMLID_2356_" x="310" y="244.999" style="fill:#50412E;" width="30" height="30"/>
	<polygon id="XMLID_2357_" style="fill:#A0815C;" points="184.167,165 260,165 335.833,165 260,95 	"/>
</g>
<g>
</g>
<g>
</g>
<g>
</g>
<g>
</g>
<g>
</g>
<g>
</g>
<g>
</g>
<g>
</g>
<g>
</g>
<g>
</g>
<g>
</g>
<g>
</g>
<g>
</g>
<g>
</g>
<g>
</g>
</svg>
