<?xml version="1.0" encoding="iso-8859-1"?>
<!-- Generator: Adobe Illustrator 19.0.0, SVG Export Plug-In . SVG Version: 6.00 Build 0)  -->
<svg xmlns="http://www.w3.org/2000/svg" xmlns:xlink="http://www.w3.org/1999/xlink" version="1.1" id="Capa_1" x="0px" y="0px" viewBox="0 0 460 460" style="enable-background:new 0 0 460 460;" xml:space="preserve" width="512" height="512">
<g id="XMLID_910_">
	<path id="XMLID_887_" style="fill:#AEA99A;" d="M460,430L460,430c0,16.569-13.431,30-30,30H30c-16.569,0-30-13.431-30-30v0   c0-16.569,13.431-30,30-30h400C446.569,400,460,413.431,460,430z"/>
	<path id="XMLID_886_" style="fill:#833428;" d="M430,200v30v61v129h-95H125H30V296.5V230v-29.667h95V100h210v100H430z"/>
	<path id="XMLID_888_" style="fill:#AEA99A;" d="M125,230H30l-20-20H5c-2.761,0-5-2.239-5-5s2.239-5,5-5h5v-10h115V230z M455,200h-5   v-10H335v40h95l20-20h5c2.761,0,5-2.239,5-5S457.761,200,455,200z"/>
	<path id="XMLID_885_" style="fill:#D6CFBA;" d="M125,210H5c-2.761,0-5-2.239-5-5s2.239-5,5-5h120V210z M455,200H335v10h120   c2.761,0,5-2.239,5-5S457.761,200,455,200z"/>
	<path id="XMLID_890_" style="fill:#AEA99A;" d="M350,100c2.761,0,5,2.239,5,5v0c0,2.761-2.239,5-5,5h-5l-10,20H125l-10-20h-5   c-2.761,0-5-2.239-5-5v0c0-2.761,2.239-5,5-5h5V90h230v10H350z"/>
	<path id="XMLID_895_" style="fill:#D6CFBA;" d="M355,105L355,105c0,2.761-2.239,5-5,5H110c-2.761,0-5-2.239-5-5v0   c0-2.761,2.239-5,5-5h240C352.761,100,355,102.239,355,105z"/>
	<path id="XMLID_884_" style="fill:#AEA99A;" d="M190,150L190,150c13.807,0,25,11.193,25,25v55h-50v-55   C165,161.193,176.193,150,190,150z M245,175v55h50v-55c0-13.807-11.193-25-25-25h0C256.193,150,245,161.193,245,175z M50,285v95h50   v-95c0-13.807-11.193-25-25-25h0C61.193,260,50,271.193,50,285z M110,285v95h50v-95c0-13.807-11.193-25-25-25h0   C121.193,260,110,271.193,110,285z M300,285v95h50v-95c0-13.807-11.193-25-25-25h0C311.193,260,300,271.193,300,285z M360,285v95   h50v-95c0-13.807-11.193-25-25-25h0C371.193,260,360,271.193,360,285z M240,250h-20c-22.091,0-40,17.909-40,40v10h100v-10   C280,267.909,262.091,250,240,250z"/>
	<path id="XMLID_883_" style="fill:#59595B;" d="M175,190h30v30h-30V190z M190,160c-8.284,0-15,6.716-15,15v5h30v-5   C205,166.716,198.284,160,190,160z M255,220h30v-30h-30V220z M270,160c-8.284,0-15,6.716-15,15v5h30v-5   C285,166.716,278.284,160,270,160z M60,330h30v-30H60V330z M60,340h30v30H60V340z M90,285v5H60v-5c0-8.284,6.716-15,15-15   S90,276.716,90,285z M120,330h30v-30h-30V330z M120,340h30v30h-30V340z M150,285v5h-30v-5c0-8.284,6.716-15,15-15   S150,276.716,150,285z M310,330h30v-30h-30V330z M310,340h30v30h-30V340z M340,285v5h-30v-5c0-8.284,6.716-15,15-15   S340,276.716,340,285z M370,330h30v-30h-30V330z M370,340h30v30h-30V340z M400,285v5h-30v-5c0-8.284,6.716-15,15-15   S400,276.716,400,285z M225,260h-5c-16.569,0-30,13.431-30,30v0h35V260z M240,260h-5v30h35v0C270,273.431,256.569,260,240,260z"/>
	<path id="XMLID_881_" style="fill:#6B6457;" d="M440,420c0,5.523-4.477,10-10,10H280H180H30c-5.523,0-10-4.477-10-10   c0-5.523,4.477-10,10-10h150v-90h100v90h150C435.523,410,440,414.477,440,420z"/>
	<path id="XMLID_876_" style="fill:#4D4337;" d="M440,420v10H270h-80H20v-10h170v-90h80v90H440z"/>
	<path id="XMLID_878_" style="fill:#3F372C;" d="M270,420h-40v-90h40V420z"/>
	<path id="XMLID_873_" style="fill:#B14724;" d="M120,15l-10,25l10,25c0,2.761-2.239,5-5,5H30V10h85C117.761,10,120,12.239,120,15z"/>
	<path id="XMLID_872_" style="fill:#64757C;" d="M40,5v435H30V5c0-2.761,2.239-5,5-5h0C37.761,0,40,2.239,40,5z"/>
</g>















</svg>
